<?xml version="1.0" encoding="UTF-8"?>
<svg id="Layer_2" data-name="Layer 2" xmlns="http://www.w3.org/2000/svg" width="30" height="30" viewBox="0 0 30 30">
  <defs>
    <style>
      .cls-1 {
        stroke: #000;
      }

      .cls-1, .cls-2 {
        fill: none;
        stroke-linecap: round;
        stroke-miterlimit: 10;
        stroke-width: .75px;
      }

      .cls-2 {
        stroke: #020202;
      }
    </style>
  </defs>
  <g>
    <rect class="cls-1" x="6.34" y="20.48" width="17.65" height="2.52" rx=".26" ry=".26"/>
    <path class="cls-1" d="M7.59,23.3v5.39c0,.1.11.17.25.17h14.44c.14,0,.25-.08.25-.17v-5.39"/>
    <path class="cls-1" d="M18.69,17.55h3.36s.08.02.11.06l1.75,2.91"/>
    <path class="cls-1" d="M6.34,20.48l1.57-2.87s.06-.07.11-.07h3.27"/>
    <rect class="cls-1" x="11.29" y="14.77" width="7.41" height="4.26"/>
    <path class="cls-2" d="M13.87,16.8s.53.55.82.83c.1.1.26.08.34-.03l1.08-1.52"/>
    <line class="cls-1" x1="9.41" y1="19.03" x2="20.41" y2="19.03"/>
  </g>
  <g>
    <rect class="cls-2" x="11.65" y="1.13" width="7.02" height="8.23" rx="2.88" ry="2.88"/>
    <rect class="cls-2" x="3.06" y="6.21" width="5.51" height="6.3" rx="2.26" ry="2.26"/>
    <path class="cls-2" d="M13.44,9.36s-.09.75-1.07,1.34-4.03.49-3.39,6.06"/>
    <path class="cls-2" d="M16.71,9.36s.09.75,1.07,1.34,4.03.49,3.39,6.06"/>
    <path class="cls-2" d="M1.31,17.16s-.6-3.83,3.28-4.64"/>
    <path class="cls-2" d="M6.73,12.51s1.7,1.21,2.16,1.45"/>
    <path class="cls-2" d="M28.67,16.97s.46-3.64-3.42-4.45"/>
    <path class="cls-2" d="M23.44,12.52s-1.88,1.02-2.35,1.26"/>
  </g>
  <g>
    <circle class="cls-2" cx="24.31" cy="7.79" r="1.88"/>
    <path class="cls-2" d="M27.19,11.66s-.01,0-.02.01c0,0-.02-.01-.02-.01,0,0-.99-.77-1.02-.79-.29.17-.61.31-.95.39l-.13,1.29c-.24.04-.48.06-.73.06-.19,0-.39-.01-.58-.03,0,0-.25-1.28-.26-1.31-.31-.07-.6-.19-.87-.34,0,0-1.13.75-1.13.75-.36-.27-.69-.58-.97-.94,0,0,.76-1.07.76-1.08-.18-.28-.31-.6-.41-.93-.03,0-1.1-.24-1.33-.29-.03-.22-.05-.44-.05-.67s.01-.43.04-.64c0,0,1.26-.15,1.29-.15.08-.36.22-.71.4-1.02-.02-.03-.69-1.19-.69-1.19.25-.32.54-.6.87-.84l1.12.75c.3-.17.63-.31.99-.39l.14-1.29c.21-.03.43-.04.66-.04.2,0,.41.01.61.04.02,0,.03,0,.05,0,0,0,.35,1.34.35,1.34.31.09.61.22.88.39l1.07-.77c.35.27.66.59.93.95l-.72,1.18c.14.27.25.56.33.87.03,0,1.08.16,1.3.2.03.2.04.4.04.61,0,.24-.02.49-.05.72,0,0-1.29.25-1.32.26-.09.3-.21.59-.37.85.02.03.77,1.09.77,1.09-.27.36-.6.68-.96.96Z"/>
  </g>
  <circle class="cls-2" cx="15.16" cy="26" r="1.34"/>
</svg>