<?xml version="1.0" encoding="UTF-8"?>
<svg id="Layer_3" data-name="Layer 3" xmlns="http://www.w3.org/2000/svg" width="30" height="30" viewBox="0 0 30 30">
  <defs>
    <style>
      .cls-1, .cls-2 {
        stroke: #010101;
      }

      .cls-1, .cls-2, .cls-3 {
        fill: none;
        stroke-linecap: round;
        stroke-width: .75px;
      }

      .cls-1, .cls-3 {
        stroke-miterlimit: 10;
      }

      .cls-2 {
        stroke-linejoin: round;
      }

      .cls-3 {
        stroke: #020202;
      }
    </style>
  </defs>
  <path class="cls-1" d="M26.31,12.53v11.53c0,1.48-1.09,2.67-2.45,2.67h-6.96"/>
  <path class="cls-1" d="M5.47,26.73h-.86c-1.35,0-2.45-1.2-2.45-2.67V7.17c0-1.48,1.09-2.67,2.45-2.67h14.29"/>
  <path class="cls-1" d="M6.62,29.17v-3.63c0-1.03.83-1.86,1.86-1.86h4.96c.19,0,.38-.07.52-.19l4.38-3.64c.45-.37,1.11-.31,1.48.14h0c.36.45.3,1.1-.15,1.46l-5.22,4.28c-.11.09-.17.22-.17.36v3.06"/>
  <line class="cls-1" x1="8.62" y1="29.17" x2="8.62" y2="26.87"/>
  <circle class="cls-1" cx="10.85" cy="19.38" r="2.49"/>
  <g>
    <circle class="cls-3" cx="24.33" cy="6.48" r="1.98"/>
    <path class="cls-3" d="M27.36,10.56s-.01,0-.02.01c-.01,0-.02-.01-.02-.01,0,0-1.05-.81-1.07-.83-.31.18-.65.32-1.01.41l-.14,1.36c-.25.04-.51.06-.77.06-.21,0-.41-.01-.61-.04,0,0-.26-1.34-.27-1.38-.33-.08-.64-.2-.92-.35,0,0-1.19.79-1.19.79-.38-.28-.73-.61-1.02-.99,0,0,.8-1.13.8-1.13-.19-.3-.33-.63-.43-.98-.03,0-1.16-.25-1.4-.3-.03-.23-.05-.47-.05-.7s.01-.45.04-.67c0,0,1.32-.16,1.36-.16.09-.38.23-.74.42-1.07-.02-.04-.72-1.26-.72-1.26.27-.33.57-.63.91-.89l1.18.79c.32-.18.67-.32,1.04-.41l.15-1.36c.23-.03.46-.05.69-.05.22,0,.43.01.64.04.02,0,.03,0,.05,0,0,0,.37,1.41.37,1.41.33.1.64.24.93.41l1.12-.81c.37.29.7.62.98,1l-.76,1.25c.15.29.27.59.34.92.03,0,1.14.17,1.37.21.03.21.04.42.04.64,0,.26-.02.51-.06.76,0,0-1.36.26-1.4.27-.09.32-.22.62-.39.9.02.03.81,1.14.81,1.14-.29.38-.63.72-1.02,1.01Z"/>
  </g>
  <rect class="cls-1" x="4.21" y="6.85" width="3.77" height="3.77"/>
  <line class="cls-1" x1="9.38" y1="8" x2="18.42" y2="8"/>
  <line class="cls-1" x1="9.37" y1="9.68" x2="14.82" y2="9.68"/>
  <rect class="cls-1" x="4.21" y="12.67" width="3.77" height="3.77"/>
  <line class="cls-1" x1="9.38" y1="13.58" x2="19.53" y2="13.58"/>
  <line class="cls-1" x1="9.37" y1="15.26" x2="15.49" y2="15.26"/>
  <polyline class="cls-2" points="5.19 8.71 5.75 9.54 7.01 8.15"/>
  <g>
    <line class="cls-1" x1="5.4" y1="13.85" x2="6.8" y2="15.26"/>
    <line class="cls-1" x1="6.75" y1="13.85" x2="5.45" y2="15.26"/>
  </g>
</svg>