<?xml version="1.0" encoding="UTF-8"?>
<svg id="Layer_3" data-name="Layer 3" xmlns="http://www.w3.org/2000/svg" width="30" height="30" viewBox="0 0 30 30">
  <defs>
    <style>
      .cls-1, .cls-2 {
        fill: #231f20;
      }

      .cls-2 {
        stroke: #231f20;
        stroke-width: .1px;
      }

      .cls-2, .cls-3 {
        stroke-miterlimit: 10;
      }

      .cls-3, .cls-4 {
        fill: none;
        stroke: #020202;
        stroke-linecap: round;
        stroke-width: .75px;
      }

      .cls-4 {
        stroke-linejoin: round;
      }
    </style>
  </defs>
  <path class="cls-3" d="M17,25.34c-.13.09-.28.15-.45.15H2.38c-.43,0-.77-.36-.77-.81V5.35c0-.45.35-.81.77-.81h3.27"/>
  <line class="cls-3" x1="17.32" y1="15.76" x2="17.32" y2="16.59"/>
  <path class="cls-3" d="M13.88,4.54h2.66c.43,0,.77.36.77.81v3.33"/>
  <rect class="cls-3" x="5.38" y="13.96" width="7.81" height="6.71" rx=".58" ry=".58"/>
  <polyline class="cls-4" points="7.07 17.32 8.58 18.84 11.73 15.8"/>
  <path class="cls-4" d="M5.93,4.18v1.71c0,.19.15.35.33.35h6.83c.18,0,.33-.16.33-.35v-1.71c0-.19-.15-.35-.33-.35h-1.42c-.16,0-.32-.12-.35-.29-.13-.84-.82-1.52-1.65-1.52s-1.52.69-1.65,1.53c-.03.17-.18.28-.35.28h-1.42c-.18,0-.33.15-.33.35Z"/>
  <g>
    <path class="cls-3" d="M20.88,6.92c0-1.28,1.04-2.32,2.32-2.32s2.32,1.04,2.32,2.32c0,.74-.34,1.4-.88,1.82"/>
    <path class="cls-3" d="M18.9,5.95c.1-.45.27-.87.5-1.25-.02-.04-.85-1.47-.85-1.47.31-.39.67-.74,1.07-1.04l1.38.92c.37-.22.78-.38,1.21-.48l.17-1.59c.26-.04.53-.06.81-.06.25,0,.5.02.75.05.02,0,.04,0,.06,0,0,0,.43,1.65.43,1.65.39.11.75.28,1.09.48l1.32-.95c.43.34.82.73,1.15,1.17l-.89,1.46c.18.34.31.7.4,1.07.04,0,1.33.2,1.6.24.03.24.05.49.05.75,0,.3-.02.6-.07.89,0,0-1.59.31-1.63.31-.11.37-.26.72-.45,1.05.02.03.94,1.34.94,1.34-.34.45-.74.84-1.19,1.18,0,0-.02.01-.02.02-.01-.01-.02-.02-.02-.02,0,0-1.23-.95-1.26-.97-.1.06-.08.05-.18.1"/>
  </g>
  <rect class="cls-3" x="17.53" y="9.07" width="6.19" height="7.26" rx="2.88" ry="2.88"/>
  <path class="cls-3" d="M19.1,16.33s-.08.58-.95,1.03-3.56.38-2.99,4.65"/>
  <path class="cls-3" d="M21.99,16.33s.08.58.95,1.03,3.56.38,2.99,4.65"/>
  <path class="cls-3" d="M19.18,26.06s-.08.58-.95,1.03c-.59.31-2.05.37-2.72,1.77"/>
  <path class="cls-3" d="M22.07,26.06s.08.58.95,1.03c.56.29,1.91.36,2.61,1.57"/>
  <circle class="cls-3" cx="20.6" cy="22.97" r="3.25"/>
  <g>
    <g>
      <path class="cls-2" d="M4.52,10.15h-.69v.64h.77v.5h-1.2v-2.7h1.16v.5h-.73v.56h.69v.5Z"/>
      <path class="cls-2" d="M4.9,8.59h.42v2.19h.75v.51h-1.17v-2.7Z"/>
      <path class="cls-2" d="M7.44,10.15h-.69v.64h.77v.5h-1.2v-2.7h1.16v.5h-.73v.56h.69v.5Z"/>
      <path class="cls-2" d="M9.2,11.22c-.08.05-.25.12-.48.12-.65,0-.99-.59-.99-1.36,0-.92.46-1.43,1.03-1.43.22,0,.39.06.46.12l-.09.48c-.08-.05-.2-.1-.36-.1-.33,0-.6.29-.6.9,0,.54.22.88.6.88.13,0,.27-.04.36-.09l.06.48Z"/>
      <path class="cls-2" d="M9.89,9.1h-.51v-.51h1.45v.51h-.51v2.19h-.42v-2.19Z"/>
      <path class="cls-2" d="M11.48,8.59v2.7h-.42v-2.7h.42Z"/>
      <path class="cls-2" d="M13.57,9.92c0,.89-.37,1.42-.92,1.42s-.89-.61-.89-1.38.36-1.42.92-1.42.89.62.89,1.37ZM12.21,9.95c0,.53.17.91.46.91s.45-.39.45-.92c0-.49-.16-.91-.45-.91s-.46.39-.46.92Z"/>
      <path class="cls-2" d="M13.85,11.3v-2.7h.5l.39.99c.11.28.22.62.31.93h0c-.02-.36-.03-.72-.03-1.13v-.79h.39v2.7h-.45l-.4-1.04c-.11-.29-.24-.64-.33-.96h-.01c.01.36.02.74.02,1.18v.81h-.39Z"/>
    </g>
    <g>
      <path class="cls-1" d="M4.52,10.15h-.69v.64h.77v.5h-1.2v-2.7h1.16v.5h-.73v.56h.69v.5Z"/>
      <path class="cls-1" d="M4.9,8.59h.42v2.19h.75v.51h-1.17v-2.7Z"/>
      <path class="cls-1" d="M7.44,10.15h-.69v.64h.77v.5h-1.2v-2.7h1.16v.5h-.73v.56h.69v.5Z"/>
      <path class="cls-1" d="M9.2,11.22c-.08.05-.25.12-.48.12-.65,0-.99-.59-.99-1.36,0-.92.46-1.43,1.03-1.43.22,0,.39.06.46.12l-.09.48c-.08-.05-.2-.1-.36-.1-.33,0-.6.29-.6.9,0,.54.22.88.6.88.13,0,.27-.04.36-.09l.06.48Z"/>
      <path class="cls-1" d="M9.89,9.1h-.51v-.51h1.45v.51h-.51v2.19h-.42v-2.19Z"/>
      <path class="cls-1" d="M11.48,8.59v2.7h-.42v-2.7h.42Z"/>
      <path class="cls-1" d="M13.57,9.92c0,.89-.37,1.42-.92,1.42s-.89-.61-.89-1.38.36-1.42.92-1.42.89.62.89,1.37ZM12.21,9.95c0,.53.17.91.46.91s.45-.39.45-.92c0-.49-.16-.91-.45-.91s-.46.39-.46.92Z"/>
      <path class="cls-1" d="M13.85,11.3v-2.7h.5l.39.99c.11.28.22.62.31.93h0c-.02-.36-.03-.72-.03-1.13v-.79h.39v2.7h-.45l-.4-1.04c-.11-.29-.24-.64-.33-.96h-.01c.01.36.02.74.02,1.18v.81h-.39Z"/>
    </g>
  </g>
</svg>