<?xml version="1.0" encoding="UTF-8"?>
<svg id="Layer_3" data-name="Layer 3" xmlns="http://www.w3.org/2000/svg" width="30" height="30" viewBox="0 0 30 30">
  <defs>
    <style>
      .cls-1 {
        stroke-miterlimit: 10;
      }

      .cls-1, .cls-2 {
        fill: none;
        stroke: #020202;
        stroke-linecap: round;
        stroke-width: .75px;
      }

      .cls-2 {
        stroke-linejoin: round;
      }
    </style>
  </defs>
  <path class="cls-1" d="M14.27,27.93H2.37c-.43,0-.77-.38-.77-.84V6.93c0-.46.35-.84.77-.84h3.27"/>
  <path class="cls-1" d="M13.87,6.09h2.66c.43,0,.77.36.77.8v3.31"/>
  <path class="cls-1" d="M24.96,24.31v3.96h1.24c.65,0,1.17-.53,1.17-1.17v-2.8c0-.35-.03-.71-.14-1.05-.78-2.46-3.09-4.24-5.81-4.24-2.47,0-4.6,1.47-5.56,3.59-.22.49-.32,1.03-.32,1.56v2.93c0,.65.53,1.17,1.17,1.17h1.14v-3.96"/>
  <circle class="cls-1" cx="21.46" cy="15.46" r="3.55"/>
  <polyline class="cls-2" points="12.3 5.09 13.49 5.09 13.49 8.14 5.73 8.14 5.73 5.09 7.04 5.09"/>
  <rect class="cls-2" x="7.04" y="3.81" width="5.25" height="2.93"/>
  <g>
    <circle class="cls-1" cx="23.29" cy="7.32" r="2.34"/>
    <path class="cls-1" d="M18.57,10.99s.95-1.33.95-1.34c-.22-.35-.39-.74-.5-1.15-.04,0-1.36-.3-1.65-.36-.04-.27-.06-.55-.06-.83s.02-.53.05-.79c0,0,1.56-.19,1.6-.19.1-.45.27-.88.5-1.26-.02-.04-.85-1.48-.85-1.48.31-.39.67-.75,1.08-1.05l1.39.93c.38-.22.79-.38,1.22-.48l.17-1.6c.27-.04.54-.06.81-.06.25,0,.51.02.75.05.02,0,.04,0,.06,0,0,0,.43,1.67.43,1.67.39.11.76.28,1.09.49l1.33-.96c.44.34.83.74,1.15,1.18l-.89,1.47c.18.34.32.7.4,1.08.04,0,1.34.2,1.61.24.03.25.05.5.05.75,0,.3-.02.6-.07.89,0,0-1.6.31-1.64.32-.11.37-.26.73-.46,1.06.02.03.95,1.35.95,1.35-.34.45-.74.85-1.2,1.19,0,0-.02.01-.02.02-.01-.01-.02-.02-.02-.02,0,0-1.23-.96-1.27-.98-.36.22-.57.34-.57.34"/>
  </g>
  <rect class="cls-1" x="3.57" y="16.55" width="2.46" height="2.46" rx=".19" ry=".19"/>
  <line class="cls-1" x1="7.36" y1="17.04" x2="14.02" y2="17.04"/>
  <line class="cls-1" x1="7.36" y1="18.64" x2="10.86" y2="18.64"/>
  <rect class="cls-1" x="3.57" y="22.41" width="2.46" height="2.46" rx=".19" ry=".19"/>
  <line class="cls-1" x1="7.36" y1="22.9" x2="14.02" y2="22.9"/>
  <line class="cls-1" x1="7.36" y1="24.51" x2="10.86" y2="24.51"/>
  <rect class="cls-1" x="3.57" y="10.76" width="2.46" height="2.46" rx=".19" ry=".19"/>
  <line class="cls-1" x1="7.36" y1="11.25" x2="14.02" y2="11.25"/>
  <line class="cls-1" x1="7.36" y1="12.85" x2="10.86" y2="12.85"/>
</svg>