<?xml version="1.0" encoding="UTF-8"?>
<svg id="Layer_3" data-name="Layer 3" xmlns="http://www.w3.org/2000/svg" width="30" height="30" viewBox="0 0 30 30">
  <defs>
    <style>
      .cls-1 {
        stroke-miterlimit: 10;
      }

      .cls-1, .cls-2 {
        fill: none;
        stroke: #010101;
        stroke-linecap: round;
        stroke-width: .75px;
      }

      .cls-2 {
        stroke-linejoin: round;
      }
    </style>
  </defs>
  <path class="cls-1" d="M13.69,19.61c-.96-1.09-2.37-1.78-3.94-1.78h-3.06c-2.89,0-5.24,2.35-5.24,5.24v3.12c0,.66.53,1.19,1.19,1.19h12.36"/>
  <path class="cls-1" d="M19.1,15.97s2.66,2.13,5.4,2.13v4.67s.41,2.99-5.4,5.81c-5.81-2.83-5.4-5.81-5.4-5.81v-4.67c2.74,0,5.4-2.13,5.4-2.13Z"/>
  <circle class="cls-1" cx="9.3" cy="13.44" r="4.39"/>
  <rect class="cls-2" x="15.41" y="2.02" width="4.23" height="4.23" rx=".23" ry=".23"/>
  <rect class="cls-2" x="23.96" y="2.02" width="4.23" height="4.23" rx=".23" ry=".23"/>
  <line class="cls-2" x1="21.29" y1="2.02" x2="21.29" y2="3.19"/>
  <line class="cls-2" x1="21.29" y1="4.62" x2="21.29" y2="5.46"/>
  <line class="cls-2" x1="21.29" y1="9.66" x2="21.29" y2="10.49"/>
  <line class="cls-2" x1="21.29" y1="12.35" x2="21.29" y2="13.19"/>
  <line class="cls-2" x1="22.56" y1="3.52" x2="22.56" y2="9.59"/>
  <polyline class="cls-2" points="26.22 7.43 26.22 8.65 27.17 8.65 27.17 10.19 28.19 10.19 28.19 13.19 26.98 13.19 26.98 12.29 27.97 12.29"/>
  <line class="cls-2" x1="15.65" y1="9.36" x2="19.94" y2="9.36"/>
  <line class="cls-2" x1="17.17" y1="11.01" x2="17.9" y2="11.01"/>
  <line class="cls-2" x1="19.58" y1="7.78" x2="20.31" y2="7.78"/>
  <line class="cls-2" x1="15.55" y1="7.78" x2="16.81" y2="7.78"/>
  <line class="cls-2" x1="19.52" y1="11.01" x2="19.76" y2="11.01"/>
  <line class="cls-2" x1="24.02" y1="9.36" x2="24.2" y2="9.36"/>
  <line class="cls-2" x1="25.03" y1="7.78" x2="25.03" y2="7.78"/>
  <line class="cls-2" x1="21.02" y1="6.9" x2="22.56" y2="6.9"/>
  <line class="cls-2" x1="24.2" y1="7.78" x2="22.56" y2="7.78"/>
  <rect class="cls-2" x="22.67" y="10.72" width="1.3" height="2.47" rx=".23" ry=".23"/>
  <rect class="cls-2" x="24.92" y="10.72" width=".94" height="2.47" rx=".23" ry=".23"/>
  <rect class="cls-2" x="25.67" y="3.69" width="1" height="1"/>
  <rect class="cls-2" x="17.17" y="3.69" width="1" height="1"/>
  <rect class="cls-2" x="15.65" y="12.35" width="3.45" height="1.09"/>
  <path class="cls-2" d="M16.35,21.71c.17.17,2.38,2.59,2.38,2.59l3.55-4.68"/>
  <line class="cls-2" x1="4.48" y1="23.34" x2="4.48" y2="27.37"/>
  <rect class="cls-1" x="1.78" y="2.02" width="11.91" height="4.23" rx=".18" ry=".18"/>
  <g>
    <line class="cls-1" x1="2.98" y1="3.36" x2="4.37" y2="4.94"/>
    <line class="cls-1" x1="4.32" y1="3.36" x2="3.03" y2="4.94"/>
  </g>
  <g>
    <line class="cls-1" x1="5.71" y1="3.36" x2="7.1" y2="4.94"/>
    <line class="cls-1" x1="7.05" y1="3.36" x2="5.75" y2="4.94"/>
  </g>
  <g>
    <line class="cls-1" x1="8.43" y1="3.36" x2="9.83" y2="4.94"/>
    <line class="cls-1" x1="9.78" y1="3.36" x2="8.48" y2="4.94"/>
  </g>
  <g>
    <line class="cls-1" x1="11.16" y1="3.36" x2="12.56" y2="4.94"/>
    <line class="cls-1" x1="12.51" y1="3.36" x2="11.21" y2="4.94"/>
  </g>
</svg>